<?xml version="1.0" encoding="utf-8"?>
<!-- Generator: Adobe Illustrator 16.0.4, SVG Export Plug-In . SVG Version: 6.00 Build 0)  -->
<!DOCTYPE svg PUBLIC "-//W3C//DTD SVG 1.1//EN" "http://www.w3.org/Graphics/SVG/1.1/DTD/svg11.dtd">
<svg version="1.1" id="Layer_1" xmlns="http://www.w3.org/2000/svg" xmlns:xlink="http://www.w3.org/1999/xlink" x="0px" y="0px"
	 width="310px" height="310px" viewBox="0 0 310 310" style="enable-background:new 0 0 310 310;" xml:space="preserve">
<style type="text/css">
<![CDATA[
	.st0{fill:#E7E7E7;}
	.st1{fill:#6D2675;}
]]>
</style>
<path class="st1" d="M310,292c0,9.9-8.1,18-18,18H18c-9.9,0-18-8.1-18-18V18C0,8.1,8.1,0,18,0h274c9.9,0,18,8.1,18,18V292z"/>
<path class="st0" d="M249,207.7c3.1-7.5,7.2-14.5,10.5-21.9c4.6-10.2,9.7-20.3,13.1-31c14.9-47-8.3-83.6-56.9-92.1
	c-12-2.1-24-6.2-34.9-11.5c-39.6-19.4-86.5-12.3-118,18.7c-30.8,30.4-39,79.1-19.8,117.8c19.9,40,61.4,61.3,107.5,55.3
	c41.4-5.4,75.8-39.4,84.1-82.2c5.8-29.7-2.9-56-19-81.7c39.8,7.9,55.6,34.6,42.5,72.4c-6.9,20-19.6,38.2-24.6,58.4
	c-3.6,14.5-2.6,32.6,3.1,46.3c7.1,17,28.8,17.9,38.7,3.3C242.9,250.8,236.5,238.2,249,207.7z M134.7,55.2
	c14.6,0,27.8,13.5,26.9,27.6c-0.9,13.7-13.8,25.4-27.7,24.9c-14.3-0.4-25.8-12.4-25.6-26.6C108.5,66.9,120.4,55.2,134.7,55.2z
	 M50.3,123.5c0.1-13.8,12.3-26.3,26-26.6c13.7-0.3,26.2,11.7,26.6,25.6c0.5,14.6-10.2,26.3-24.7,27.1
	C63.4,150.3,50.2,137.9,50.3,123.5z M99.8,217.4c-14.6,0.3-26.5-10.5-27.3-24.7c-0.8-14.4,12-27.9,26.5-27.9
	c13.6,0,25.9,12.4,26.3,26.3C125.6,205.7,114.5,217.1,99.8,217.4z M171.3,217.6c-14.4,0.4-26.7-10.7-27.5-24.7
	c-0.8-14.3,12.1-27.9,26.6-28c13.7-0.1,26.1,12.3,26.3,26.1C196.9,205.6,185.8,217.2,171.3,217.6z M218.7,123
	c0.3,14.4-10.9,26.1-25.3,26.5c-15.3,0.5-27.4-11.4-27.2-26.6c0.2-13.8,12.5-26.1,26.2-26.1C206,96.8,218.5,109.3,218.7,123z"/>
</svg>
