<?xml version="1.0" encoding="utf-8"?>
<!-- Generator: Adobe Illustrator 16.0.4, SVG Export Plug-In . SVG Version: 6.00 Build 0)  -->
<!DOCTYPE svg PUBLIC "-//W3C//DTD SVG 1.1//EN" "http://www.w3.org/Graphics/SVG/1.1/DTD/svg11.dtd">
<svg version="1.1" id="Layer_1" xmlns="http://www.w3.org/2000/svg" xmlns:xlink="http://www.w3.org/1999/xlink" x="0px" y="0px"
	 width="270.456px" height="270.456px" viewBox="1 1 270.456 270.456" enable-background="new 1 1 270.456 270.456"
	 xml:space="preserve">
<g id="Inside_1_">
	<g>
		<path fill="#333333" d="M37.401,266.956c-17.59,0-31.901-14.311-31.901-31.901V37.401C5.5,19.811,19.811,5.5,37.401,5.5h197.653
			c17.591,0,31.901,14.311,31.901,31.901v197.653c0,17.591-14.311,31.901-31.901,31.901H37.401z"/>
		<path fill="#F4F4F4" d="M235.054,10c15.133,0,27.401,12.268,27.401,27.401v197.653c0,15.134-12.27,27.401-27.401,27.401H37.401
			c-15.134,0-27.401-12.27-27.401-27.401V37.401C10,22.267,22.267,10,37.401,10H235.054 M235.054,1H37.401
			C17.329,1,1,17.329,1,37.401v197.653c0,20.072,16.33,36.401,36.401,36.401h197.653c20.072,0,36.401-16.329,36.401-36.401V37.401
			C271.456,17.329,255.127,1,235.054,1L235.054,1z"/>
	</g>
</g>
<g id="Full_Screen" display="none">
	
		<image display="inline" overflow="visible" opacity="0.75" enable-background="new    " width="223" height="169" xlink:href="BC2A47A1FE8527F.png"  transform="matrix(1 0 0 1 32.1365 60.1365)">
	</image>
	<g display="inline">
		<g>
			<g>
				
					<linearGradient id="SVGID_1_" gradientUnits="userSpaceOnUse" x1="-175.9998" y1="11.5466" x2="-175.9998" y2="-38.4534" gradientTransform="matrix(1 0 0 -1 242 80.5464)">
					<stop  offset="0" style="stop-color:#FFFFFF"/>
					<stop  offset="0.5507" style="stop-color:#ACACAC"/>
					<stop  offset="0.9905" style="stop-color:#666666"/>
				</linearGradient>
				<path fill="url(#SVGID_1_)" d="M91,74c0-2.75-2.25-5-5-5H60.285c-2.75,0-7.25,0-10,0H46c-2.75,0-5,2.25-5,5v4.285
					c0,2.75,0,7.25,0,10V114c0,2.75,2.25,5,5,5h4.285c2.75,0,5-2.25,5-5V88.285c0-2.75,2.25-5,5-5H86c2.75,0,5-2.25,5-5V74z"/>
			</g>
			<g>
				
					<linearGradient id="SVGID_2_" gradientUnits="userSpaceOnUse" x1="-34.7268" y1="11.5466" x2="-34.7268" y2="-38.4534" gradientTransform="matrix(1 0 0 -1 242 80.5464)">
					<stop  offset="0" style="stop-color:#FFFFFF"/>
					<stop  offset="0.5507" style="stop-color:#ACACAC"/>
					<stop  offset="0.9905" style="stop-color:#666666"/>
				</linearGradient>
				<path fill="url(#SVGID_2_)" d="M227.273,119c2.75,0,5-2.25,5-5V88.285c0-2.75,0-7.25,0-10V74c0-2.75-2.25-5-5-5h-4.285
					c-2.75,0-7.25,0-10,0h-25.715c-2.75,0-5,2.25-5,5v4.285c0,2.75,2.25,5,5,5h25.715c2.75,0,5,2.25,5,5V114c0,2.75,2.25,5,5,5
					H227.273z"/>
			</g>
			<g>
				
					<linearGradient id="SVGID_3_" gradientUnits="userSpaceOnUse" x1="-34.7268" y1="-75.7273" x2="-34.7268" y2="-125.7273" gradientTransform="matrix(1 0 0 -1 242 80.5464)">
					<stop  offset="0" style="stop-color:#FFFFFF"/>
					<stop  offset="0.5507" style="stop-color:#ACACAC"/>
					<stop  offset="0.9905" style="stop-color:#666666"/>
				</linearGradient>
				<path fill="url(#SVGID_3_)" d="M182.273,201.273c0,2.75,2.25,5,5,5h25.715c2.75,0,7.25,0,10,0h4.285c2.75,0,5-2.25,5-5v-4.285
					c0-2.75,0-7.25,0-10v-25.715c0-2.75-2.25-5-5-5h-4.285c-2.75,0-5,2.25-5,5v25.715c0,2.75-2.25,5-5,5h-25.715c-2.75,0-5,2.25-5,5
					V201.273z"/>
			</g>
			<g>
				
					<linearGradient id="SVGID_4_" gradientUnits="userSpaceOnUse" x1="-175.9998" y1="-75.7273" x2="-175.9998" y2="-125.7273" gradientTransform="matrix(1 0 0 -1 242 80.5464)">
					<stop  offset="0" style="stop-color:#FFFFFF"/>
					<stop  offset="0.5507" style="stop-color:#ACACAC"/>
					<stop  offset="0.9905" style="stop-color:#666666"/>
				</linearGradient>
				<path fill="url(#SVGID_4_)" d="M46,156.273c-2.75,0-5,2.25-5,5v25.715c0,2.75,0,7.25,0,10v4.285c0,2.75,2.25,5,5,5h4.285
					c2.75,0,7.25,0,10,0H86c2.75,0,5-2.25,5-5v-4.285c0-2.75-2.25-5-5-5H60.285c-2.75,0-5-2.25-5-5v-25.715c0-2.75-2.25-5-5-5H46z"
					/>
			</g>
		</g>
	</g>
</g>
<g id="UnMute" display="none">
	<g display="inline">
		<g id="UnMute_9_">
			
				<image overflow="visible" opacity="0.75" enable-background="new    " width="199" height="165" xlink:href="BC2A47A1FE8527D.png"  transform="matrix(1 0 0 1 48.1365 61.1365)">
			</image>
			<g>
				<g>
					<g id="Mute_9_">
						<g>
							<g>
								
									<linearGradient id="SVGID_5_" gradientUnits="userSpaceOnUse" x1="-137.6453" y1="7.2415" x2="-137.6453" y2="-119.7361" gradientTransform="matrix(1 0 0 -1 242 80.5464)">
									<stop  offset="0" style="stop-color:#FFFFFF"/>
									<stop  offset="0.5507" style="stop-color:#ACACAC"/>
									<stop  offset="0.9905" style="stop-color:#666666"/>
								</linearGradient>
								<path fill="url(#SVGID_5_)" d="M105.581,103.38c-2.244,1.593-5.503,3.542-7.243,4.337
									c-1.737,0.798-8.164,1.446-10.914,1.446H66.637c-2.75,0-6.125,0.506-7.5,1.125s-2.5,6.125-2.5,8.875v34.946
									c0,2.75,0.506,6.125,1.125,7.5c0.616,1.375,6.125,2.5,8.875,2.5H87.42c2.75,0,6.538,0.293,8.418,0.647
									c1.88,0.357,7.497,3.542,9.74,5.136l38.335,27.172c2.243,1.591,4.997,3.036,6.118,3.213c1.122,0.177,2.04-4.679,2.04-7.429
									V80.425c0-2.75-0.413-5.832-0.918-6.849s-4.997,1.043-7.24,2.633L105.581,103.38z"/>
							</g>
						</g>
					</g>
					<g id="Arch1_7_">
						<g>
							<g>
								
									<linearGradient id="SVGID_6_" gradientUnits="userSpaceOnUse" x1="-69.9304" y1="-26.6423" x2="-69.9304" y2="-85.5422" gradientTransform="matrix(1 0 0 -1 242 80.5464)">
									<stop  offset="0" style="stop-color:#FFFFFF"/>
									<stop  offset="0.5507" style="stop-color:#ACACAC"/>
									<stop  offset="0.9905" style="stop-color:#666666"/>
								</linearGradient>
								<path fill="url(#SVGID_6_)" d="M169.468,163.925c-1.646,2.202-4.036,2.827-5.315,1.392
									c-1.279-1.438-0.978-4.416,0.676-6.616c0,0,9.107-12.14,9.11-21.91c0.004-9.854-9.271-22.215-9.271-22.215
									c-1.648-2.2-1.955-5.175-0.675-6.613c1.28-1.438,3.675-0.812,5.321,1.393c0,0,11.63,15.557,11.625,27.438
									C180.931,148.586,169.468,163.925,169.468,163.925z"/>
							</g>
						</g>
					</g>
					<g id="Arch2_7_">
						<g>
							<g>
								
									<linearGradient id="SVGID_7_" gradientUnits="userSpaceOnUse" x1="-51.2385" y1="-6.99" x2="-51.2385" y2="-105.1951" gradientTransform="matrix(1 0 0 -1 242 80.5464)">
									<stop  offset="0" style="stop-color:#FFFFFF"/>
									<stop  offset="0.5507" style="stop-color:#ACACAC"/>
									<stop  offset="0.9905" style="stop-color:#666666"/>
								</linearGradient>
								<path fill="url(#SVGID_7_)" d="M183.663,183.579c-1.646,2.202-4.041,2.826-5.32,1.388c-1.276-1.438-0.976-4.417,0.677-6.614
									c0,0,18.214-24.3,18.22-41.456c0.007-17.309-18.49-41.974-18.49-41.974c-1.647-2.197-1.953-5.177-0.673-6.612
									c1.28-1.438,3.675-0.812,5.322,1.389c0,0,20.848,27.867,20.841,47.199C204.229,156.082,183.663,183.579,183.663,183.579z"/>
							</g>
						</g>
					</g>
					<g id="Arch3_7_">
						<g>
							<g>
								
									<linearGradient id="SVGID_8_" gradientUnits="userSpaceOnUse" x1="-35.5168" y1="11.2029" x2="-35.5169" y2="-123.4949" gradientTransform="matrix(1 0 0 -1 242 80.5464)">
									<stop  offset="0" style="stop-color:#FFFFFF"/>
									<stop  offset="0.5507" style="stop-color:#ACACAC"/>
									<stop  offset="0.9905" style="stop-color:#666666"/>
								</linearGradient>
								<path fill="url(#SVGID_8_)" d="M195.21,201.878c-1.646,2.202-4.041,2.826-5.317,1.391c-1.279-1.438-0.979-4.417,0.673-6.617
									c0,0,26.665-35.586,26.674-59.606c0.009-24.223-27.046-60.312-27.046-60.312c-1.649-2.201-1.952-5.18-0.672-6.615
									c1.277-1.438,3.675-0.812,5.32,1.389c0,0,29.404,39.295,29.396,65.544C224.226,163.092,195.21,201.878,195.21,201.878z"/>
							</g>
						</g>
					</g>
				</g>
			</g>
		</g>
	</g>
</g>
<g id="Layer_2" display="none">
	
		<polygon display="inline" fill="#333333" stroke="#F4F4F4" stroke-width="12" stroke-linecap="round" stroke-linejoin="round" stroke-miterlimit="10" points="
		51.637,108.14 94.136,108.14 154.136,68.14 154.136,204.315 94.136,164.315 51.637,164.315 	"/>
</g>
<g id="Pause_1_" display="none">
	
		<image display="inline" overflow="visible" opacity="0.75" enable-background="new    " width="135" height="191" xlink:href="BC2A47A1FE85283.png"  transform="matrix(1 0 0 1 76.1375 48.1365)">
	</image>
	<g display="inline">
		<g>
			<g>
				
					<linearGradient id="SVGID_9_" gradientUnits="userSpaceOnUse" x1="-73.3645" y1="24.2107" x2="-73.3645" y2="-136.3904" gradientTransform="matrix(1 0 0 -1 242 80.5464)">
					<stop  offset="0" style="stop-color:#FFFFFF"/>
					<stop  offset="0.5507" style="stop-color:#ACACAC"/>
					<stop  offset="0.9905" style="stop-color:#666666"/>
				</linearGradient>
				<path fill="url(#SVGID_9_)" d="M188.635,211.936c0,2.75-2.25,5-5,5h-30c-2.75,0-5-2.25-5-5V61.336c0-2.75,2.25-5,5-5h30
					c2.75,0,5,2.25,5,5V211.936z"/>
			</g>
			<g>
				
					<linearGradient id="SVGID_10_" gradientUnits="userSpaceOnUse" x1="-137.364" y1="24.2107" x2="-137.364" y2="-136.3904" gradientTransform="matrix(1 0 0 -1 242 80.5464)">
					<stop  offset="0" style="stop-color:#FFFFFF"/>
					<stop  offset="0.5507" style="stop-color:#ACACAC"/>
					<stop  offset="0.9905" style="stop-color:#666666"/>
				</linearGradient>
				<path fill="url(#SVGID_10_)" d="M124.635,211.936c0,2.75-2.25,5-5,5h-30c-2.75,0-5-2.25-5-5V61.336c0-2.75,2.25-5,5-5h30
					c2.75,0,5,2.25,5,5V211.936z"/>
			</g>
		</g>
	</g>
</g>
<g id="Layer_3" display="none">
	<g display="inline">
		<path fill="none" stroke="#F4F4F4" stroke-width="12" stroke-linecap="round" stroke-linejoin="round" stroke-miterlimit="10" d="
			M207.521,69.652c0,0,62.377,70.775,0,133.151"/>
		<path fill="none" stroke="#F4F4F4" stroke-width="12" stroke-linecap="round" stroke-linejoin="round" stroke-miterlimit="10" d="
			M191.076,87.845c0,0,44.305,52.352,0,96.656"/>
		<path fill="none" stroke="#F4F4F4" stroke-width="12" stroke-linecap="round" stroke-linejoin="round" stroke-miterlimit="10" d="
			M175.992,107.497c0,0,25.428,31.927,0,57.354"/>
	</g>
</g>
<g display="none">
	
		<line display="inline" fill="#333333" stroke="#F4F4F4" stroke-width="28" stroke-linecap="round" stroke-linejoin="round" stroke-miterlimit="10" x1="104.227" y1="76.225" x2="104.227" y2="196.23"/>
	
		<line display="inline" fill="#333333" stroke="#F4F4F4" stroke-width="28" stroke-linecap="round" stroke-linejoin="round" stroke-miterlimit="10" x1="168.228" y1="76.225" x2="168.228" y2="196.23"/>
</g>
<polygon fill="#F4F4F4" stroke="#F4F4F4" stroke-width="15" stroke-linecap="round" stroke-linejoin="round" stroke-miterlimit="10" points="
	87.943,68.927 204.512,136.228 87.943,203.529 "/>
</svg>
